<?xml version="1.0" standalone="no"?>
<!DOCTYPE svg PUBLIC "-//W3C//DTD SVG 20010904//EN"
 "http://www.w3.org/TR/2001/REC-SVG-20010904/DTD/svg10.dtd">
<svg version="1.0" xmlns="http://www.w3.org/2000/svg"
 width="1024.000000pt" height="1024.000000pt" viewBox="0 0 1024.000000 1024.000000"
 preserveAspectRatio="xMidYMid meet">
<metadata>
Created by potrace 1.11, written by Peter Selinger 2001-2013
</metadata>
<g transform="translate(0.000000,1024.000000) scale(0.100000,-0.100000)"
fill="#000000" stroke="none">
<path d="M4892 7905 c-185 -47 -343 -158 -442 -309 -56 -86 -56 -86 -87 -77
-16 4 -64 7 -108 6 -66 -2 -105 -8 -205 -30 -55 -12 -153 -61 -220 -111 -167
-123 -278 -301 -307 -493 -4 -25 -7 -367 -7 -758 -1 -481 -4 -713 -11 -713 -6
0 -19 6 -30 13 -29 20 -123 55 -180 68 -74 16 -253 18 -332 3 -130 -24 -217
-62 -318 -136 -157 -116 -262 -268 -311 -449 -20 -74 -28 -269 -14 -344 34
-179 65 -230 511 -825 220 -294 409 -546 419 -560 214 -290 420 -559 466 -609
135 -146 318 -245 496 -266 69 -9 2309 -9 2368 0 219 30 430 188 528 393 34
71 77 266 167 752 9 52 25 138 35 190 10 52 21 109 23 125 3 17 8 41 11 55 3
14 8 36 10 50 2 14 16 88 30 165 14 77 30 176 35 220 5 44 9 460 9 925 1 909
-1 934 -51 1060 -39 95 -86 166 -162 243 -148 149 -323 225 -525 228 l-65 1
-2 86 c-8 272 -185 535 -441 653 -105 49 -312 78 -407 59 -28 -6 -33 -2 -76
62 -179 272 -501 400 -807 323z m263 -391 c77 -17 170 -88 220 -168 45 -73 45
-73 45 -1178 0 -991 1 -1048 18 -1049 9 0 30 -2 45 -3 16 -1 31 3 34 8 4 5 7
392 7 860 2 908 1 896 52 972 57 85 117 130 209 156 193 55 406 -87 433 -289
4 -32 7 -428 7 -880 0 -725 2 -823 15 -824 8 -1 24 -2 35 -3 53 -3 51 -21 50
436 0 233 3 447 7 476 17 108 93 208 197 260 48 23 68 27 146 27 76 0 98 -4
145 -26 97 -47 176 -143 198 -245 5 -24 9 -404 9 -870 0 -855 0 -879 -42
-1084 -2 -14 -7 -38 -10 -55 -18 -99 -35 -193 -39 -213 -3 -12 -17 -86 -31
-165 -23 -127 -36 -195 -90 -477 -8 -41 -17 -92 -21 -114 -13 -83 -30 -150
-49 -191 -33 -68 -116 -134 -195 -155 -34 -9 -330 -12 -1165 -11 -616 0 -1131
3 -1144 6 -96 19 -172 66 -234 143 -41 53 -55 70 -179 237 -62 83 -116 155
-120 160 -8 9 -570 757 -623 830 -27 36 -103 136 -118 155 -7 8 -37 49 -67 90
-30 41 -57 77 -60 80 -12 12 -69 98 -85 130 -58 112 -53 267 11 377 116 197
382 259 569 132 44 -29 72 -58 128 -134 20 -27 40 -54 45 -60 4 -5 97 -128
206 -272 108 -145 198 -263 199 -263 1 0 2 559 2 1243 -1 683 3 1257 8 1276 5
18 10 41 12 51 5 26 52 98 86 131 70 69 150 101 249 101 142 0 273 -94 328
-235 14 -37 16 -139 17 -900 1 -471 4 -860 7 -863 6 -5 46 -8 79 -5 15 1 16
95 16 1039 0 570 3 1055 7 1077 16 97 92 202 180 248 74 38 165 50 251 31z"/>
</g>
</svg>
